<svg xmlns="http://www.w3.org/2000/svg" viewBox="0 0 1200 800" width="1200" height="800">
  <defs>
    <style>
      @keyframes fadeIn { from { opacity: 0; transform: translateY(10px); } to { opacity: 1; transform: translateY(0); } }
      @keyframes slideRight { from { width: 0; } to { width: var(--bar-width); } }
      @keyframes pulse { 0%, 100% { opacity: 1; } 50% { opacity: 0.6; } }
      @keyframes scoreCount { from { opacity: 0; transform: scale(0.5); } to { opacity: 1; transform: scale(1); } }
      @keyframes rowHighlight { 0% { fill: transparent; } 50% { fill: rgba(37, 99, 235, 0.08); } 100% { fill: transparent; } }
      @keyframes shimmer { from { transform: translateX(-100%); } to { transform: translateX(200%); } }
      @keyframes notifSlide { from { transform: translateX(400px); opacity: 0; } to { transform: translateX(0); opacity: 1; } }
      @keyframes chartDraw { from { stroke-dashoffset: 800; } to { stroke-dashoffset: 0; } }
      @keyframes barGrow { from { transform: scaleX(0); } to { transform: scaleX(1); } }
      @keyframes numberTick { 0% { opacity: 0; } 10% { opacity: 1; } 90% { opacity: 1; } 100% { opacity: 1; } }

      .sf-header { fill: #032D60; }
      .sf-accent { fill: #0176D3; }
      .invesco-gold { fill: #B8860B; }
      .invesco-blue { fill: #003366; }
      .bg { fill: #F3F3F3; }
      .card { fill: white; rx: 8; filter: drop-shadow(0 1px 3px rgba(0,0,0,0.1)); }
      .text-primary { fill: #1B1C1D; font-family: 'SF Pro Display', -apple-system, system-ui, sans-serif; }
      .text-secondary { fill: #706E6B; font-family: 'SF Pro Display', -apple-system, system-ui, sans-serif; }
      .text-white { fill: white; font-family: 'SF Pro Display', -apple-system, system-ui, sans-serif; }
      .text-blue { fill: #0176D3; font-family: 'SF Pro Display', -apple-system, system-ui, sans-serif; }
      .text-green { fill: #2E844A; font-family: 'SF Pro Display', -apple-system, system-ui, sans-serif; }
      .text-red { fill: #EA001E; font-family: 'SF Pro Display', -apple-system, system-ui, sans-serif; }
      .text-gold { fill: #B8860B; font-family: 'SF Pro Display', -apple-system, system-ui, sans-serif; }
      .mono { font-family: 'SF Mono', 'Fira Code', monospace; }

      .row-1 { animation: fadeIn 0.5s ease-out 0.3s both; }
      .row-2 { animation: fadeIn 0.5s ease-out 0.5s both; }
      .row-3 { animation: fadeIn 0.5s ease-out 0.7s both; }
      .row-4 { animation: fadeIn 0.5s ease-out 0.9s both; }
      .row-5 { animation: fadeIn 0.5s ease-out 1.1s both; }
      .row-6 { animation: fadeIn 0.5s ease-out 1.3s both; }
      .row-7 { animation: fadeIn 0.5s ease-out 1.5s both; }

      .stat-1 { animation: fadeIn 0.6s ease-out 0.2s both; }
      .stat-2 { animation: fadeIn 0.6s ease-out 0.4s both; }
      .stat-3 { animation: fadeIn 0.6s ease-out 0.6s both; }
      .stat-4 { animation: fadeIn 0.6s ease-out 0.8s both; }

      .notif { animation: notifSlide 0.5s ease-out 2.5s both; }
      .chart-line { stroke-dasharray: 800; animation: chartDraw 2s ease-out 1s both; }

      .bar-anim { transform-origin: left center; }
      .bar-1 { animation: barGrow 0.8s ease-out 1.0s both; }
      .bar-2 { animation: barGrow 0.8s ease-out 1.2s both; }
      .bar-3 { animation: barGrow 0.8s ease-out 1.4s both; }
      .bar-4 { animation: barGrow 0.8s ease-out 1.6s both; }
      .bar-5 { animation: barGrow 0.8s ease-out 1.8s both; }
      .bar-6 { animation: barGrow 0.8s ease-out 2.0s both; }
      .bar-7 { animation: barGrow 0.8s ease-out 2.2s both; }
    </style>
    <linearGradient id="sfGrad" x1="0" y1="0" x2="1" y2="0">
      <stop offset="0%" stop-color="#032D60"/>
      <stop offset="100%" stop-color="#0176D3"/>
    </linearGradient>
    <linearGradient id="invescoGrad" x1="0" y1="0" x2="1" y2="0">
      <stop offset="0%" stop-color="#003366"/>
      <stop offset="100%" stop-color="#0055A4"/>
    </linearGradient>
    <linearGradient id="goldGrad" x1="0" y1="0" x2="1" y2="0">
      <stop offset="0%" stop-color="#B8860B"/>
      <stop offset="100%" stop-color="#DAA520"/>
    </linearGradient>
    <linearGradient id="greenGrad" x1="0" y1="0" x2="1" y2="0">
      <stop offset="0%" stop-color="#2E844A"/>
      <stop offset="100%" stop-color="#45B369"/>
    </linearGradient>
    <linearGradient id="redGrad" x1="0" y1="0" x2="1" y2="0">
      <stop offset="0%" stop-color="#EA001E"/>
      <stop offset="100%" stop-color="#FF5C5C"/>
    </linearGradient>
  </defs>

  <!-- Background -->
  <rect width="1200" height="800" class="bg"/>

  <!-- Salesforce Header Bar -->
  <rect width="1200" height="52" fill="url(#sfGrad)"/>
  <!-- SF Cloud icon -->
  <g transform="translate(20, 10)">
    <path d="M16 8c0-2.2-1.8-4-4-4-1.5 0-2.8.8-3.5 2C7.8 5.4 7 5 6 5c-2.2 0-4 1.8-4 4 0 .2 0 .4.1.6C.8 10.2 0 11.5 0 13c0 2.2 1.8 4 4 4h20c2.8 0 5-2.2 5-5 0-2.5-1.8-4.5-4.2-4.9C24.3 4.8 22.3 3 20 3c-1.7 0-3.2.8-4 2z" fill="white" opacity="0.9" transform="scale(1.2)"/>
  </g>
  <text x="60" y="33" class="text-white" font-size="16" font-weight="600">Sales Cloud</text>
  <text x="160" y="33" class="text-white" font-size="14" opacity="0.7">|</text>
  <text x="178" y="33" class="text-white" font-size="14" opacity="0.8">Distribution Intelligence</text>

  <!-- Invesco branding pill -->
  <rect x="920" y="12" width="120" height="28" rx="14" fill="url(#invescoGrad)" opacity="0.9"/>
  <text x="945" y="31" class="text-white" font-size="12" font-weight="600">INVESCO</text>
  <text x="1060" y="33" class="text-white" font-size="12" opacity="0.7">J. Martinez</text>

  <!-- Sub-navigation -->
  <rect y="52" width="1200" height="40" fill="white" filter="drop-shadow(0 1px 2px rgba(0,0,0,0.05))"/>
  <text x="30" y="77" class="text-blue" font-size="13" font-weight="600" text-decoration="underline">My Territory</text>
  <text x="140" y="77" class="text-secondary" font-size="13">Rising Stars</text>
  <text x="245" y="77" class="text-secondary" font-size="13">Fallen Angels</text>
  <text x="365" y="77" class="text-secondary" font-size="13">At-Risk AUM</text>
  <text x="475" y="77" class="text-secondary" font-size="13">Cross-Sell</text>
  <text x="565" y="77" class="text-secondary" font-size="13">RIA Insights</text>
  <rect x="30" y="88" width="85" height="3" rx="1.5" fill="#0176D3"/>

  <!-- KPI Cards Row -->
  <g class="stat-1">
    <rect x="20" y="106" width="275" height="90" class="card"/>
    <text x="40" y="132" class="text-secondary" font-size="11" text-transform="uppercase" letter-spacing="1">TOTAL ADVISORS</text>
    <text x="40" y="168" class="text-primary" font-size="36" font-weight="700">847</text>
    <text x="130" y="168" class="text-green" font-size="13">↑ 12 this month</text>
  </g>
  <g class="stat-2">
    <rect x="310" y="106" width="275" height="90" class="card"/>
    <text x="330" y="132" class="text-secondary" font-size="11" text-transform="uppercase" letter-spacing="1">TERRITORY AUM</text>
    <text x="330" y="168" class="text-primary" font-size="36" font-weight="700">$4.2B</text>
    <text x="445" y="168" class="text-green" font-size="13">↑ 3.1% QoQ</text>
  </g>
  <g class="stat-3">
    <rect x="600" y="106" width="275" height="90" class="card"/>
    <text x="620" y="132" class="text-secondary" font-size="11" text-transform="uppercase" letter-spacing="1">OPPORTUNITIES TODAY</text>
    <text x="620" y="168" class="text-primary" font-size="36" font-weight="700">23</text>
    <text x="680" y="168" class="text-gold" font-size="13">⚡ 5 high-priority</text>
  </g>
  <g class="stat-4">
    <rect x="890" y="106" width="290" height="90" class="card"/>
    <text x="910" y="132" class="text-secondary" font-size="11" text-transform="uppercase" letter-spacing="1">NET SALES (TTM)</text>
    <text x="910" y="168" class="text-primary" font-size="36" font-weight="700">$127M</text>
    <text x="1035" y="168" class="text-green" font-size="13">↑ 18% YoY</text>
  </g>

  <!-- Priority Queue Table -->
  <rect x="20" y="210" width="760" height="580" class="card"/>
  <text x="40" y="240" class="text-primary" font-size="16" font-weight="700">Today's Priority Queue</text>
  <text x="620" y="240" class="text-secondary" font-size="12">Updated 2 min ago</text>

  <!-- Table header -->
  <rect x="20" y="252" width="760" height="32" fill="#F7F9FB" rx="0"/>
  <text x="40" y="273" class="text-secondary" font-size="11" font-weight="600">#</text>
  <text x="65" y="273" class="text-secondary" font-size="11" font-weight="600">ADVISOR</text>
  <text x="240" y="273" class="text-secondary" font-size="11" font-weight="600">FIRM</text>
  <text x="410" y="273" class="text-secondary" font-size="11" font-weight="600">SIGNAL</text>
  <text x="560" y="273" class="text-secondary" font-size="11" font-weight="600">SCORE</text>
  <text x="640" y="273" class="text-secondary" font-size="11" font-weight="600">AUM</text>
  <text x="720" y="273" class="text-secondary" font-size="11" font-weight="600">ACTION</text>

  <!-- Row 1 - Rising Star -->
  <g class="row-1">
    <rect x="22" y="286" width="756" height="48" fill="rgba(46, 132, 74, 0.04)" rx="4"/>
    <text x="40" y="315" class="text-secondary" font-size="13">1</text>
    <circle cx="80" cy="310" r="14" fill="#E8F5E9"/>
    <text x="74" y="314" class="text-green" font-size="11" font-weight="600">SC</text>
    <text x="102" y="308" class="text-primary" font-size="13" font-weight="600">Sarah Chen</text>
    <text x="102" y="323" class="text-secondary" font-size="10">CRD# 4829103</text>
    <text x="240" y="315" class="text-primary" font-size="12">Raymond James</text>
    <g>
      <rect x="410" y="299" width="100" height="22" rx="11" fill="#E8F5E9"/>
      <text x="425" y="314" class="text-green" font-size="10" font-weight="600">⭐ Rising Star</text>
    </g>
    <text x="560" y="315" class="text-primary mono" font-size="16" font-weight="800">9.2</text>
    <text x="595" y="315" class="text-secondary" font-size="10">/10</text>
    <text x="640" y="315" class="text-primary" font-size="12">$18.4M</text>
    <rect x="718" y="299" width="50" height="22" rx="4" fill="#0176D3"/>
    <text x="728" y="314" class="text-white" font-size="10" font-weight="600">Prep</text>
  </g>

  <!-- Row 2 - Fallen Angel -->
  <g class="row-2">
    <rect x="22" y="336" width="756" height="48" fill="transparent" rx="4"/>
    <text x="40" y="365" class="text-secondary" font-size="13">2</text>
    <circle cx="80" cy="360" r="14" fill="#FFF3F3"/>
    <text x="73" y="364" class="text-red" font-size="11" font-weight="600">MW</text>
    <text x="102" y="358" class="text-primary" font-size="13" font-weight="600">Mark Williams</text>
    <text x="102" y="373" class="text-secondary" font-size="10">CRD# 2910384</text>
    <text x="240" y="365" class="text-primary" font-size="12">UBS Financial</text>
    <g>
      <rect x="410" y="349" width="108" height="22" rx="11" fill="#FFF3F3"/>
      <text x="422" y="364" class="text-red" font-size="10" font-weight="600">👼 Fallen Angel</text>
    </g>
    <text x="560" y="365" class="text-primary mono" font-size="16" font-weight="800">8.7</text>
    <text x="595" y="365" class="text-secondary" font-size="10">/10</text>
    <text x="640" y="365" class="text-primary" font-size="12">$12.1M</text>
    <rect x="718" y="349" width="50" height="22" rx="4" fill="#EA001E"/>
    <text x="725" y="364" class="text-white" font-size="10" font-weight="600">Defend</text>
  </g>

  <!-- Row 3 - Cross-sell -->
  <g class="row-3">
    <rect x="22" y="386" width="756" height="48" fill="rgba(37, 99, 235, 0.03)" rx="4"/>
    <text x="40" y="415" class="text-secondary" font-size="13">3</text>
    <circle cx="80" cy="410" r="14" fill="#EBF5FF"/>
    <text x="76" y="414" class="text-blue" font-size="11" font-weight="600">JP</text>
    <text x="102" y="408" class="text-primary" font-size="13" font-weight="600">Jennifer Park</text>
    <text x="102" y="423" class="text-secondary" font-size="10">CRD# 5120847</text>
    <text x="240" y="415" class="text-primary" font-size="12">Merrill Lynch</text>
    <g>
      <rect x="410" y="399" width="95" height="22" rx="11" fill="#EBF5FF"/>
      <text x="423" y="414" class="text-blue" font-size="10" font-weight="600">💰 Cross-Sell</text>
    </g>
    <text x="560" y="415" class="text-primary mono" font-size="16" font-weight="800">8.4</text>
    <text x="595" y="415" class="text-secondary" font-size="10">/10</text>
    <text x="640" y="415" class="text-primary" font-size="12">$24.7M</text>
    <rect x="718" y="399" width="50" height="22" rx="4" fill="#0176D3"/>
    <text x="728" y="414" class="text-white" font-size="10" font-weight="600">Pitch</text>
  </g>

  <!-- Row 4 - Upsell -->
  <g class="row-4">
    <rect x="22" y="436" width="756" height="48" fill="transparent" rx="4"/>
    <text x="40" y="465" class="text-secondary" font-size="13">4</text>
    <circle cx="80" cy="460" r="14" fill="#FFF8E1"/>
    <text x="74" y="464" class="text-gold" font-size="11" font-weight="600">RB</text>
    <text x="102" y="458" class="text-primary" font-size="13" font-weight="600">Robert Blake</text>
    <text x="102" y="473" class="text-secondary" font-size="10">CRD# 3847291</text>
    <text x="240" y="465" class="text-primary" font-size="12">Wells Fargo Advisors</text>
    <g>
      <rect x="410" y="449" width="82" height="22" rx="11" fill="#FFF8E1"/>
      <text x="423" y="464" class="text-gold" font-size="10" font-weight="600">📈 Upsell</text>
    </g>
    <text x="560" y="465" class="text-primary mono" font-size="16" font-weight="800">7.9</text>
    <text x="595" y="465" class="text-secondary" font-size="10">/10</text>
    <text x="640" y="465" class="text-primary" font-size="12">$9.3M</text>
    <rect x="718" y="449" width="50" height="22" rx="4" fill="#B8860B"/>
    <text x="726" y="464" class="text-white" font-size="10" font-weight="600">Email</text>
  </g>

  <!-- Row 5 - Strategic -->
  <g class="row-5">
    <rect x="22" y="486" width="756" height="48" fill="rgba(128, 0, 255, 0.03)" rx="4"/>
    <text x="40" y="515" class="text-secondary" font-size="13">5</text>
    <circle cx="80" cy="510" r="14" fill="#F3E8FF"/>
    <text x="74" y="514" fill="#7C3AED" font-size="11" font-weight="600" font-family="system-ui">DL</text>
    <text x="102" y="508" class="text-primary" font-size="13" font-weight="600">David Liu</text>
    <text x="102" y="523" class="text-secondary" font-size="10">CRD# 6203847</text>
    <text x="240" y="515" class="text-primary" font-size="12">Morgan Stanley</text>
    <g>
      <rect x="410" y="499" width="90" height="22" rx="11" fill="#F3E8FF"/>
      <text x="422" y="514" fill="#7C3AED" font-size="10" font-weight="600" font-family="system-ui">🎯 Strategic</text>
    </g>
    <text x="560" y="515" class="text-primary mono" font-size="16" font-weight="800">7.6</text>
    <text x="595" y="515" class="text-secondary" font-size="10">/10</text>
    <text x="640" y="515" class="text-primary" font-size="12">$31.2M</text>
    <rect x="718" y="499" width="50" height="22" rx="4" fill="#7C3AED"/>
    <text x="728" y="514" class="text-white" font-size="10" font-weight="600">Prep</text>
  </g>

  <!-- Row 6 - Defend -->
  <g class="row-6">
    <rect x="22" y="536" width="756" height="48" fill="transparent" rx="4"/>
    <text x="40" y="565" class="text-secondary" font-size="13">6</text>
    <circle cx="80" cy="560" r="14" fill="#FFF3F3"/>
    <text x="74" y="564" class="text-red" font-size="11" font-weight="600">AT</text>
    <text x="102" y="558" class="text-primary" font-size="13" font-weight="600">Amy Torres</text>
    <text x="102" y="573" class="text-secondary" font-size="10">CRD# 4938201</text>
    <text x="240" y="565" class="text-primary" font-size="12">Edward Jones</text>
    <g>
      <rect x="410" y="549" width="105" height="22" rx="11" fill="#FFF3F3"/>
      <text x="422" y="564" class="text-red" font-size="10" font-weight="600">⚠️ Assets at Risk</text>
    </g>
    <text x="560" y="565" class="text-primary mono" font-size="16" font-weight="800">7.3</text>
    <text x="595" y="565" class="text-secondary" font-size="10">/10</text>
    <text x="640" y="565" class="text-primary" font-size="12">$15.8M</text>
    <rect x="718" y="549" width="50" height="22" rx="4" fill="#EA001E"/>
    <text x="725" y="564" class="text-white" font-size="10" font-weight="600">Defend</text>
  </g>

  <!-- Row 7 - RIA -->
  <g class="row-7">
    <rect x="22" y="586" width="756" height="48" fill="rgba(37, 99, 235, 0.03)" rx="4"/>
    <text x="40" y="615" class="text-secondary" font-size="13">7</text>
    <circle cx="80" cy="610" r="14" fill="#EBF5FF"/>
    <text x="73" y="614" class="text-blue" font-size="11" font-weight="600">KN</text>
    <text x="102" y="608" class="text-primary" font-size="13" font-weight="600">Kevin Nakamura</text>
    <text x="102" y="623" class="text-secondary" font-size="10">Apex Wealth Mgmt</text>
    <text x="240" y="615" class="text-primary" font-size="12">RIA — Schwab</text>
    <g>
      <rect x="410" y="599" width="100" height="22" rx="11" fill="#EBF5FF"/>
      <text x="422" y="614" class="text-blue" font-size="10" font-weight="600">🏢 RIA Insight</text>
    </g>
    <text x="560" y="615" class="text-primary mono" font-size="16" font-weight="800">7.1</text>
    <text x="595" y="615" class="text-secondary" font-size="10">/10</text>
    <text x="640" y="615" class="text-primary" font-size="12">$340M</text>
    <rect x="718" y="599" width="50" height="22" rx="4" fill="#0176D3"/>
    <text x="728" y="614" class="text-white" font-size="10" font-weight="600">Prep</text>
  </g>

  <!-- Pagination -->
  <text x="40" y="660" class="text-secondary" font-size="11">Showing 1-7 of 23 opportunities</text>
  <g transform="translate(640, 646)">
    <rect width="28" height="22" rx="4" fill="#0176D3"/>
    <text x="9" y="15" class="text-white" font-size="11">1</text>
    <rect x="32" width="28" height="22" rx="4" fill="#F7F9FB"/>
    <text x="41" y="15" class="text-secondary" font-size="11">2</text>
    <rect x="64" width="28" height="22" rx="4" fill="#F7F9FB"/>
    <text x="73" y="15" class="text-secondary" font-size="11">3</text>
    <rect x="96" width="28" height="22" rx="4" fill="#F7F9FB"/>
    <text x="105" y="15" class="text-secondary" font-size="11">4</text>
  </g>

  <!-- Right sidebar - Signal Distribution -->
  <rect x="800" y="210" width="380" height="260" class="card"/>
  <text x="820" y="240" class="text-primary" font-size="14" font-weight="700">Signal Distribution</text>

  <!-- Signal bars -->
  <text x="820" y="268" class="text-secondary" font-size="11">Rising Stars</text>
  <rect x="930" y="257" width="0" height="14" rx="3" fill="url(#greenGrad)" class="bar-anim bar-1">
    <animate attributeName="width" from="0" to="180" dur="0.8s" begin="1s" fill="freeze"/>
  </rect>
  <text x="1120" y="268" class="text-primary" font-size="11" font-weight="600" opacity="0">
    <animate attributeName="opacity" to="1" dur="0.3s" begin="1.8s" fill="freeze"/>
    6
  </text>

  <text x="820" y="295" class="text-secondary" font-size="11">Fallen Angels</text>
  <rect x="930" y="284" width="0" height="14" rx="3" fill="url(#redGrad)" class="bar-anim bar-2">
    <animate attributeName="width" from="0" to="120" dur="0.8s" begin="1.2s" fill="freeze"/>
  </rect>
  <text x="1060" y="295" class="text-primary" font-size="11" font-weight="600" opacity="0">
    <animate attributeName="opacity" to="1" dur="0.3s" begin="2s" fill="freeze"/>
    4
  </text>

  <text x="820" y="322" class="text-secondary" font-size="11">Cross-Sell</text>
  <rect x="930" y="311" width="0" height="14" rx="3" fill="#0176D3" class="bar-anim bar-3">
    <animate attributeName="width" from="0" to="150" dur="0.8s" begin="1.4s" fill="freeze"/>
  </rect>
  <text x="1090" y="322" class="text-primary" font-size="11" font-weight="600" opacity="0">
    <animate attributeName="opacity" to="1" dur="0.3s" begin="2.2s" fill="freeze"/>
    5
  </text>

  <text x="820" y="349" class="text-secondary" font-size="11">Upsell</text>
  <rect x="930" y="338" width="0" height="14" rx="3" fill="url(#goldGrad)" class="bar-anim bar-4">
    <animate attributeName="width" from="0" to="90" dur="0.8s" begin="1.6s" fill="freeze"/>
  </rect>
  <text x="1030" y="349" class="text-primary" font-size="11" font-weight="600" opacity="0">
    <animate attributeName="opacity" to="1" dur="0.3s" begin="2.4s" fill="freeze"/>
    3
  </text>

  <text x="820" y="376" class="text-secondary" font-size="11">Strategic</text>
  <rect x="930" y="365" width="0" height="14" rx="3" fill="#7C3AED" class="bar-anim bar-5">
    <animate attributeName="width" from="0" to="60" dur="0.8s" begin="1.8s" fill="freeze"/>
  </rect>
  <text x="1000" y="376" class="text-primary" font-size="11" font-weight="600" opacity="0">
    <animate attributeName="opacity" to="1" dur="0.3s" begin="2.6s" fill="freeze"/>
    2
  </text>

  <text x="820" y="403" class="text-secondary" font-size="11">At-Risk</text>
  <rect x="930" y="392" width="0" height="14" rx="3" fill="#EA001E" class="bar-anim bar-6">
    <animate attributeName="width" from="0" to="60" dur="0.8s" begin="2.0s" fill="freeze"/>
  </rect>
  <text x="1000" y="403" class="text-primary" font-size="11" font-weight="600" opacity="0">
    <animate attributeName="opacity" to="1" dur="0.3s" begin="2.8s" fill="freeze"/>
    2
  </text>

  <text x="820" y="430" class="text-secondary" font-size="11">RIA Insight</text>
  <rect x="930" y="419" width="0" height="14" rx="3" fill="#0EA5E9" class="bar-anim bar-7">
    <animate attributeName="width" from="0" to="30" dur="0.8s" begin="2.2s" fill="freeze"/>
  </rect>
  <text x="970" y="430" class="text-primary" font-size="11" font-weight="600" opacity="0">
    <animate attributeName="opacity" to="1" dur="0.3s" begin="3.0s" fill="freeze"/>
    1
  </text>

  <!-- Trailing 12-Month Net Sales Chart -->
  <rect x="800" y="485" width="380" height="200" class="card"/>
  <text x="820" y="515" class="text-primary" font-size="14" font-weight="700">Territory Net Sales (TTM)</text>
  <text x="1080" y="515" class="text-green" font-size="12" font-weight="600">+18%</text>

  <!-- Chart axes -->
  <line x1="840" y1="540" x2="840" y2="660" stroke="#E5E7EB" stroke-width="1"/>
  <line x1="840" y1="660" x2="1150" y2="660" stroke="#E5E7EB" stroke-width="1"/>
  <!-- Y labels -->
  <text x="828" y="548" class="text-secondary" font-size="9" text-anchor="end">$15M</text>
  <text x="828" y="588" class="text-secondary" font-size="9" text-anchor="end">$10M</text>
  <text x="828" y="628" class="text-secondary" font-size="9" text-anchor="end">$5M</text>
  <text x="828" y="663" class="text-secondary" font-size="9" text-anchor="end">$0</text>
  <!-- X labels -->
  <text x="870" y="675" class="text-secondary" font-size="9">Mar</text>
  <text x="920" y="675" class="text-secondary" font-size="9">May</text>
  <text x="970" y="675" class="text-secondary" font-size="9">Jul</text>
  <text x="1020" y="675" class="text-secondary" font-size="9">Sep</text>
  <text x="1070" y="675" class="text-secondary" font-size="9">Nov</text>
  <text x="1120" y="675" class="text-secondary" font-size="9">Jan</text>

  <!-- Chart line -->
  <polyline points="860,640 890,635 920,625 950,618 980,605 1010,595 1040,580 1070,570 1100,555 1130,548 1145,545"
    fill="none" stroke="#0176D3" stroke-width="2.5" stroke-linecap="round" stroke-linejoin="round"
    stroke-dasharray="800" stroke-dashoffset="800">
    <animate attributeName="stroke-dashoffset" from="800" to="0" dur="2s" begin="1.5s" fill="freeze"/>
  </polyline>
  <!-- Area fill -->
  <polygon points="860,640 890,635 920,625 950,618 980,605 1010,595 1040,580 1070,570 1100,555 1130,548 1145,545 1145,660 860,660"
    fill="#0176D3" opacity="0">
    <animate attributeName="opacity" from="0" to="0.08" dur="0.5s" begin="3s" fill="freeze"/>
  </polygon>

  <!-- Live notification toast -->
  <g class="notif">
    <rect x="800" y="700" width="380" height="52" rx="8" fill="#032D60" filter="drop-shadow(0 4px 12px rgba(0,0,0,0.15))"/>
    <circle cx="825" cy="726" r="10" fill="#2E844A"/>
    <text x="820" y="730" class="text-white" font-size="12" font-weight="800">⚡</text>
    <text x="845" y="720" class="text-white" font-size="12" font-weight="600">New Signal Detected</text>
    <text x="845" y="738" fill="#A0AEC0" font-size="11" font-family="system-ui">Lisa Nguyen — Rising Star score jumped to 8.1</text>
  </g>

  <!-- ForwardLane watermark -->
  <text x="1140" y="790" class="text-secondary" font-size="9" text-anchor="end" opacity="0.4">Powered by ForwardLane AI</text>
</svg>