<svg xmlns="http://www.w3.org/2000/svg" viewBox="0 0 1200 800" width="1200" height="800">
  <defs>
    <style>
      @keyframes fadeIn { from { opacity: 0; transform: translateY(8px); } to { opacity: 1; transform: translateY(0); } }
      @keyframes countUp { from { opacity: 0; transform: scale(0.8); } to { opacity: 1; transform: scale(1); } }
      @keyframes barGrow { from { transform: scaleX(0); } to { transform: scaleX(1); } }
      @keyframes lineReveal { from { stroke-dashoffset: 600; } to { stroke-dashoffset: 0; } }
      @keyframes pulseGlow { 0%, 100% { filter: drop-shadow(0 0 0 rgba(46,132,74,0)); } 50% { filter: drop-shadow(0 0 12px rgba(46,132,74,0.4)); } }
      @keyframes sparkle { 0% { opacity: 0; transform: scale(0) rotate(0deg); } 50% { opacity: 1; transform: scale(1.2) rotate(180deg); } 100% { opacity: 0; transform: scale(0) rotate(360deg); } }

      .bg { fill: #F3F3F3; }
      .card { fill: white; filter: drop-shadow(0 1px 3px rgba(0,0,0,0.1)); }
      .text-primary { fill: #1B1C1D; font-family: -apple-system, system-ui, sans-serif; }
      .text-secondary { fill: #706E6B; font-family: -apple-system, system-ui, sans-serif; }
      .text-white { fill: white; font-family: -apple-system, system-ui, sans-serif; }
      .text-green { fill: #2E844A; font-family: -apple-system, system-ui, sans-serif; }
      .text-blue { fill: #0176D3; font-family: -apple-system, system-ui, sans-serif; }
      .mono { font-family: 'SF Mono', monospace; }

      .detail-1 { animation: fadeIn 0.5s ease-out 0.2s both; }
      .detail-2 { animation: fadeIn 0.5s ease-out 0.4s both; }
      .detail-3 { animation: fadeIn 0.5s ease-out 0.6s both; }
      .detail-4 { animation: fadeIn 0.5s ease-out 0.8s both; }
      .detail-5 { animation: fadeIn 0.5s ease-out 1.0s both; }
      .detail-6 { animation: fadeIn 0.5s ease-out 1.2s both; }
      .score-anim { animation: countUp 0.8s cubic-bezier(0.34, 1.56, 0.64, 1) 0.5s both; }
      .sparkle-1 { animation: sparkle 1.5s ease-in-out 1.5s infinite; }
      .sparkle-2 { animation: sparkle 1.5s ease-in-out 2.0s infinite; }
      .sparkle-3 { animation: sparkle 1.5s ease-in-out 2.5s infinite; }
    </style>
    <linearGradient id="sfGrad" x1="0" y1="0" x2="1" y2="0">
      <stop offset="0%" stop-color="#032D60"/>
      <stop offset="100%" stop-color="#0176D3"/>
    </linearGradient>
    <linearGradient id="greenGrad" x1="0" y1="0" x2="0" y2="1">
      <stop offset="0%" stop-color="#2E844A" stop-opacity="0.15"/>
      <stop offset="100%" stop-color="#2E844A" stop-opacity="0"/>
    </linearGradient>
    <linearGradient id="scoreGrad" x1="0" y1="0" x2="1" y2="1">
      <stop offset="0%" stop-color="#2E844A"/>
      <stop offset="100%" stop-color="#45B369"/>
    </linearGradient>
  </defs>

  <rect width="1200" height="800" class="bg"/>

  <!-- Salesforce Header -->
  <rect width="1200" height="52" fill="url(#sfGrad)"/>
  <text x="20" y="33" class="text-white" font-size="16" font-weight="600">☁ Sales Cloud</text>
  <text x="160" y="33" class="text-white" font-size="14" opacity="0.5">|</text>
  <text x="178" y="33" class="text-white" font-size="14" opacity="0.8">Advisor Detail</text>
  <text x="1060" y="33" class="text-white" font-size="12" opacity="0.7">← Back to Queue</text>

  <!-- Breadcrumb -->
  <rect y="52" width="1200" height="36" fill="white"/>
  <text x="30" y="75" class="text-blue" font-size="12">My Territory</text>
  <text x="110" y="75" class="text-secondary" font-size="12">›</text>
  <text x="125" y="75" class="text-blue" font-size="12">Priority Queue</text>
  <text x="215" y="75" class="text-secondary" font-size="12">›</text>
  <text x="230" y="75" class="text-primary" font-size="12" font-weight="600">Sarah Chen</text>

  <!-- Hero Card -->
  <g class="detail-1">
    <rect x="20" y="100" width="780" height="130" rx="8" class="card"/>
    <!-- Avatar -->
    <circle cx="80" cy="165" r="35" fill="#E8F5E9"/>
    <text x="62" y="175" class="text-green" font-size="24" font-weight="700">SC</text>
    <!-- Name + Info -->
    <text x="130" y="138" class="text-primary" font-size="22" font-weight="700">Sarah Chen, CFP®</text>
    <text x="340" y="138" font-size="12" font-family="system-ui">
      <tspan fill="#2E844A" font-weight="600">⭐ RISING STAR</tspan>
    </text>
    <text x="130" y="160" class="text-secondary" font-size="13">Raymond James Financial Services | CRD# 4829103</text>
    <text x="130" y="180" class="text-secondary" font-size="12">Southeast Region · Atlanta, GA · 12 years experience</text>
    <text x="130" y="200" class="text-secondary" font-size="12">Series 7, 63, 65 · AIF® · CFP®</text>
    <!-- Quick actions -->
    <rect x="590" y="130" width="80" height="30" rx="4" fill="#0176D3"/>
    <text x="607" y="150" class="text-white" font-size="11" font-weight="600">📞 Call</text>
    <rect x="680" y="130" width="80" height="30" rx="4" fill="white" stroke="#0176D3" stroke-width="1"/>
    <text x="697" y="150" class="text-blue" font-size="11" font-weight="600">✉️ Email</text>
    <rect x="590" y="170" width="170" height="30" rx="4" fill="#E8F5E9"/>
    <text x="608" y="190" class="text-green" font-size="11" font-weight="600">📋 Generate Meeting Prep</text>
  </g>

  <!-- Score Ring -->
  <g class="score-anim" transform="translate(860, 100)">
    <rect width="320" height="130" rx="8" class="card"/>
    <text x="40" y="30" class="text-secondary" font-size="11" font-weight="600">RISING STAR SCORE</text>
    <!-- Score circle -->
    <circle cx="80" cy="80" r="35" fill="none" stroke="#E5E7EB" stroke-width="6"/>
    <circle cx="80" cy="80" r="35" fill="none" stroke="url(#scoreGrad)" stroke-width="6"
      stroke-dasharray="220" stroke-dashoffset="220" stroke-linecap="round" transform="rotate(-90 80 80)">
      <animate attributeName="stroke-dashoffset" from="220" to="18" dur="1.2s" begin="0.8s" fill="freeze"/>
    </circle>
    <text x="80" y="78" class="text-green mono" font-size="28" font-weight="800" text-anchor="middle" dominant-baseline="middle">9.2</text>
    <text x="80" y="98" class="text-secondary" font-size="10" text-anchor="middle">/10</text>
    <!-- Sparkles -->
    <text x="125" y="55" font-size="14" class="sparkle-1">✨</text>
    <text x="140" y="75" font-size="10" class="sparkle-2">✨</text>
    <text x="120" y="95" font-size="12" class="sparkle-3">⭐</text>
    <!-- Score breakdown -->
    <text x="165" y="55" class="text-secondary" font-size="10">MF Score: 9</text>
    <text x="165" y="72" class="text-secondary" font-size="10">ETF Score: 8</text>
    <text x="165" y="89" class="text-green" font-size="11" font-weight="600">+$3.2M TTM increase</text>
    <text x="165" y="110" class="text-secondary" font-size="10">Top 2% of territory</text>
  </g>

  <!-- Sales Trend Chart -->
  <g class="detail-2">
    <rect x="20" y="245" width="500" height="250" rx="8" class="card"/>
    <text x="40" y="275" class="text-primary" font-size="14" font-weight="700">Trailing 12-Month Net Sales</text>
    <text x="400" y="275" class="text-green" font-size="13" font-weight="600">↑ $3.2M (+42%)</text>

    <!-- Chart grid -->
    <line x1="60" y1="300" x2="60" y2="460" stroke="#F0F0F0" stroke-width="1"/>
    <line x1="60" y1="460" x2="490" y2="460" stroke="#E5E7EB" stroke-width="1"/>
    <line x1="60" y1="380" x2="490" y2="380" stroke="#F0F0F0" stroke-width="1" stroke-dasharray="4"/>
    <line x1="60" y1="340" x2="490" y2="340" stroke="#F0F0F0" stroke-width="1" stroke-dasharray="4"/>
    <line x1="60" y1="420" x2="490" y2="420" stroke="#F0F0F0" stroke-width="1" stroke-dasharray="4"/>

    <!-- Y axis labels -->
    <text x="50" y="305" class="text-secondary" font-size="9" text-anchor="end">$800K</text>
    <text x="50" y="345" class="text-secondary" font-size="9" text-anchor="end">$600K</text>
    <text x="50" y="385" class="text-secondary" font-size="9" text-anchor="end">$400K</text>
    <text x="50" y="425" class="text-secondary" font-size="9" text-anchor="end">$200K</text>
    <text x="50" y="463" class="text-secondary" font-size="9" text-anchor="end">$0</text>

    <!-- X axis labels -->
    <text x="90" y="478" class="text-secondary" font-size="9">Mar</text>
    <text x="130" y="478" class="text-secondary" font-size="9">Apr</text>
    <text x="168" y="478" class="text-secondary" font-size="9">May</text>
    <text x="207" y="478" class="text-secondary" font-size="9">Jun</text>
    <text x="248" y="478" class="text-secondary" font-size="9">Jul</text>
    <text x="288" y="478" class="text-secondary" font-size="9">Aug</text>
    <text x="328" y="478" class="text-secondary" font-size="9">Sep</text>
    <text x="368" y="478" class="text-secondary" font-size="9">Oct</text>
    <text x="408" y="478" class="text-secondary" font-size="9">Nov</text>
    <text x="448" y="478" class="text-secondary" font-size="9">Dec</text>

    <!-- Area chart - previous year (faded) -->
    <polygon points="90,440 130,435 170,430 210,425 250,430 290,435 330,425 370,420 410,415 450,410 470,408 470,460 90,460"
      fill="#706E6B" opacity="0.06"/>
    <polyline points="90,440 130,435 170,430 210,425 250,430 290,435 330,425 370,420 410,415 450,410 470,408"
      fill="none" stroke="#706E6B" stroke-width="1.5" stroke-dasharray="4" opacity="0.3"/>

    <!-- Area chart - current year (green, animated) -->
    <polygon points="90,430 130,415 170,400 210,385 250,370 290,355 330,340 370,325 410,315 450,305 470,298 470,460 90,460"
      fill="url(#greenGrad)" opacity="0">
      <animate attributeName="opacity" from="0" to="1" dur="0.5s" begin="1.5s" fill="freeze"/>
    </polygon>
    <polyline points="90,430 130,415 170,400 210,385 250,370 290,355 330,340 370,325 410,315 450,305 470,298"
      fill="none" stroke="#2E844A" stroke-width="2.5" stroke-linecap="round" stroke-linejoin="round"
      stroke-dasharray="600" stroke-dashoffset="600">
      <animate attributeName="stroke-dashoffset" from="600" to="0" dur="1.5s" begin="0.8s" fill="freeze"/>
    </polyline>

    <!-- Legend -->
    <line x1="100" y1="270" x2="120" y2="270" stroke="#2E844A" stroke-width="2"/>
    <text x="125" y="274" class="text-secondary" font-size="10">Current Year</text>
    <line x1="210" y1="270" x2="230" y2="270" stroke="#706E6B" stroke-width="1.5" stroke-dasharray="4"/>
    <text x="235" y="274" class="text-secondary" font-size="10">Prior Year</text>
  </g>

  <!-- Fund Breakdown Table -->
  <g class="detail-3">
    <rect x="540" y="245" width="640" height="250" rx="8" class="card"/>
    <text x="560" y="275" class="text-primary" font-size="14" font-weight="700">Invesco Fund Purchases — Top Movers</text>

    <!-- Table header -->
    <rect x="540" y="288" width="640" height="28" fill="#F7F9FB"/>
    <text x="560" y="307" class="text-secondary" font-size="10" font-weight="600">FUND</text>
    <text x="780" y="307" class="text-secondary" font-size="10" font-weight="600">TTM PURCHASES</text>
    <text x="910" y="307" class="text-secondary" font-size="10" font-weight="600">YoY CHANGE</text>
    <text x="1040" y="307" class="text-secondary" font-size="10" font-weight="600">TREND</text>

    <!-- Fund rows with animated bars -->
    <g opacity="0"><animate attributeName="opacity" to="1" dur="0.3s" begin="1.0s" fill="freeze"/>
      <text x="560" y="340" class="text-primary" font-size="12" font-weight="500">Invesco QQQ Trust</text>
      <text x="560" y="353" class="text-secondary" font-size="9">ETF · Large Cap Growth</text>
      <text x="780" y="345" class="text-primary mono" font-size="12" font-weight="600">$1,240,000</text>
      <text x="910" y="345" class="text-green" font-size="12" font-weight="600">+68%</text>
      <rect x="1040" y="335" width="0" height="10" rx="2" fill="#2E844A">
        <animate attributeName="width" from="0" to="100" dur="0.6s" begin="1.2s" fill="freeze"/>
      </rect>
    </g>

    <g opacity="0"><animate attributeName="opacity" to="1" dur="0.3s" begin="1.3s" fill="freeze"/>
      <text x="560" y="382" class="text-primary" font-size="12" font-weight="500">Invesco S&amp;P 500 Equal Wt</text>
      <text x="560" y="395" class="text-secondary" font-size="9">ETF · Large Cap Blend</text>
      <text x="780" y="387" class="text-primary mono" font-size="12" font-weight="600">$890,000</text>
      <text x="910" y="387" class="text-green" font-size="12" font-weight="600">+52%</text>
      <rect x="1040" y="377" width="0" height="10" rx="2" fill="#2E844A">
        <animate attributeName="width" from="0" to="72" dur="0.6s" begin="1.5s" fill="freeze"/>
      </rect>
    </g>

    <g opacity="0"><animate attributeName="opacity" to="1" dur="0.3s" begin="1.6s" fill="freeze"/>
      <text x="560" y="424" class="text-primary" font-size="12" font-weight="500">Invesco Developing Mkts</text>
      <text x="560" y="437" class="text-secondary" font-size="9">MF · Emerging Markets</text>
      <text x="780" y="429" class="text-primary mono" font-size="12" font-weight="600">$620,000</text>
      <text x="910" y="429" class="text-green" font-size="12" font-weight="600">+35%</text>
      <rect x="1040" y="419" width="0" height="10" rx="2" fill="#2E844A">
        <animate attributeName="width" from="0" to="50" dur="0.6s" begin="1.8s" fill="freeze"/>
      </rect>
    </g>

    <g opacity="0"><animate attributeName="opacity" to="1" dur="0.3s" begin="1.9s" fill="freeze"/>
      <text x="560" y="466" class="text-primary" font-size="12" font-weight="500">Invesco Senior Loan</text>
      <text x="560" y="479" class="text-secondary" font-size="9">MF · Bank Loan</text>
      <text x="780" y="471" class="text-primary mono" font-size="12" font-weight="600">$450,000</text>
      <text x="910" y="471" class="text-green" font-size="12" font-weight="600">+120%</text>
      <rect x="1040" y="461" width="0" height="10" rx="2" fill="#45B369">
        <animate attributeName="width" from="0" to="36" dur="0.6s" begin="2.1s" fill="freeze"/>
      </rect>
    </g>
  </g>

  <!-- AI-Generated Talking Points -->
  <g class="detail-4">
    <rect x="20" y="510" width="500" height="280" rx="8" class="card"/>
    <rect x="20" y="510" width="500" height="36" rx="8" fill="#032D60"/>
    <rect x="20" y="530" width="500" height="16" fill="#032D60"/>
    <text x="40" y="534" class="text-white" font-size="13" font-weight="600">🤖 AI-Generated Meeting Prep</text>
    <text x="420" y="534" class="text-white" font-size="10" opacity="0.7">Just now</text>

    <g opacity="0"><animate attributeName="opacity" to="1" dur="0.4s" begin="1.5s" fill="freeze"/>
      <text x="40" y="572" class="text-primary" font-size="12" font-weight="600">Key Talking Points:</text>
      <text x="40" y="594" class="text-primary" font-size="11">✅ Sarah's MF+ETF purchases up 42% YoY — acknowledge her growth</text>
      <text x="40" y="614" class="text-primary" font-size="11">✅ QQQ is her top holding — discuss Invesco NASDAQ Next Gen (QQQJ)</text>
      <text x="40" y="634" class="text-primary" font-size="11">✅ Senior Loan up 120% — she's rotating into floating rate. Pitch</text>
      <text x="52" y="650" class="text-primary" font-size="11">Invesco Variable Rate Investment Grade (VRIG)</text>
      <text x="40" y="670" class="text-primary" font-size="11">✅ No alternatives exposure — greenspace opportunity for PDBC</text>

      <text x="40" y="700" class="text-primary" font-size="12" font-weight="600">Predicted Upside:</text>
      <text x="40" y="720" class="text-green" font-size="14" font-weight="700">+$680K in additional net sales over next 6 months</text>

      <rect x="40" y="740" width="140" height="30" rx="4" fill="#0176D3"/>
      <text x="60" y="760" class="text-white" font-size="11" font-weight="600">📋 Copy to CRM</text>
      <rect x="195" y="740" width="140" height="30" rx="4" fill="white" stroke="#0176D3" stroke-width="1"/>
      <text x="213" y="760" class="text-blue" font-size="11" font-weight="600">✉️ Send via Email</text>
    </g>
  </g>

  <!-- Book Composition -->
  <g class="detail-5">
    <rect x="540" y="510" width="310" height="280" rx="8" class="card"/>
    <text x="560" y="540" class="text-primary" font-size="14" font-weight="700">Invesco Book Share</text>

    <!-- Donut chart (simplified) -->
    <circle cx="690" cy="635" r="60" fill="none" stroke="#E5E7EB" stroke-width="20"/>
    <circle cx="690" cy="635" r="60" fill="none" stroke="#003366" stroke-width="20"
      stroke-dasharray="377" stroke-dashoffset="377" transform="rotate(-90 690 635)">
      <animate attributeName="stroke-dashoffset" from="377" to="264" dur="1s" begin="1.5s" fill="freeze"/>
    </circle>
    <text x="690" y="630" class="text-primary" font-size="24" font-weight="800" text-anchor="middle">30%</text>
    <text x="690" y="650" class="text-secondary" font-size="10" text-anchor="middle">of total book</text>

    <!-- Stats -->
    <text x="560" y="568" class="text-secondary" font-size="10">Invesco AUM</text>
    <text x="560" y="586" class="text-primary mono" font-size="16" font-weight="700">$5.5M</text>
    <text x="560" y="604" class="text-secondary" font-size="10">Total Book</text>
    <text x="560" y="622" class="text-primary mono" font-size="16" font-weight="700">$18.4M</text>
    <text x="560" y="648" class="text-secondary" font-size="10">Invesco Rank</text>
    <text x="560" y="666" class="text-primary" font-size="14" font-weight="700">#3 of 847</text>
    <text x="635" y="666" class="text-green" font-size="10">↑ from #8</text>

    <!-- Category breakdown -->
    <text x="560" y="700" class="text-secondary" font-size="10">Vehicle Mix</text>
    <rect x="560" y="710" width="90" height="6" rx="3" fill="#003366"/>
    <rect x="653" y="710" width="50" height="6" rx="3" fill="#0055A4"/>
    <rect x="706" y="710" width="25" height="6" rx="3" fill="#4DA6FF"/>
    <text x="560" y="730" class="text-secondary" font-size="9">ETF 58%</text>
    <text x="635" y="730" class="text-secondary" font-size="9">MF 32%</text>
    <text x="700" y="730" class="text-secondary" font-size="9">SMA 10%</text>
  </g>

  <!-- Engagement History -->
  <g class="detail-6">
    <rect x="870" y="510" width="310" height="280" rx="8" class="card"/>
    <text x="890" y="540" class="text-primary" font-size="14" font-weight="700">Recent Engagement</text>

    <g opacity="0"><animate attributeName="opacity" to="1" dur="0.3s" begin="2.0s" fill="freeze"/>
      <!-- Timeline -->
      <line x1="910" y1="560" x2="910" y2="760" stroke="#E5E7EB" stroke-width="2"/>

      <circle cx="910" cy="570" r="5" fill="#2E844A"/>
      <text x="925" y="568" class="text-primary" font-size="11" font-weight="500">Attended Invesco webinar</text>
      <text x="925" y="582" class="text-secondary" font-size="9">Feb 28 · "Fixed Income Outlook 2026"</text>

      <circle cx="910" cy="610" r="5" fill="#0176D3"/>
      <text x="925" y="608" class="text-primary" font-size="11" font-weight="500">Portfolio page visit</text>
      <text x="925" y="622" class="text-secondary" font-size="9">Feb 25 · Viewed QQQ + Senior Loan</text>

      <circle cx="910" cy="650" r="5" fill="#B8860B"/>
      <text x="925" y="648" class="text-primary" font-size="11" font-weight="500">Opened market commentary</text>
      <text x="925" y="662" class="text-secondary" font-size="9">Feb 20 · "Rates, Rotation, Reality"</text>

      <circle cx="910" cy="690" r="5" fill="#0176D3"/>
      <text x="925" y="688" class="text-primary" font-size="11" font-weight="500">Called by J. Martinez</text>
      <text x="925" y="702" class="text-secondary" font-size="9">Feb 15 · 8 min · Discussed alts allocation</text>

      <circle cx="910" cy="730" r="5" fill="#2E844A"/>
      <text x="925" y="728" class="text-primary" font-size="11" font-weight="500">Purchased Invesco Senior Loan</text>
      <text x="925" y="742" class="text-secondary" font-size="9">Feb 12 · $180K new position</text>
    </g>
  </g>

  <!-- Footer -->
  <text x="1140" y="793" class="text-secondary" font-size="9" text-anchor="end" opacity="0.4">Powered by ForwardLane AI</text>
</svg>