<svg xmlns="http://www.w3.org/2000/svg" viewBox="0 0 1200 800" width="1200" height="800">
  <defs>
    <style>
      @keyframes fadeIn { from { opacity: 0; transform: translateY(10px); } to { opacity: 1; transform: translateY(0); } }
      @keyframes barGrow { from { transform: scaleX(0); } to { transform: scaleX(1); } }
      @keyframes notifSlide { from { transform: translateX(400px); opacity: 0; } to { transform: translateX(0); opacity: 1; } }

      .bg { fill: #FAFBFC; }
      .card { fill: white; filter: drop-shadow(0 1px 4px rgba(0,0,0,0.08)); }
      .text-primary { fill: #111827; font-family: 'Inter', -apple-system, system-ui, sans-serif; }
      .text-secondary { fill: #6B7280; font-family: 'Inter', -apple-system, system-ui, sans-serif; }
      .text-white { fill: white; font-family: 'Inter', -apple-system, system-ui, sans-serif; }
      .text-indigo { fill: #4F46E5; font-family: 'Inter', -apple-system, system-ui, sans-serif; }
      .text-green { fill: #059669; font-family: 'Inter', -apple-system, system-ui, sans-serif; }
      .text-red { fill: #DC2626; font-family: 'Inter', -apple-system, system-ui, sans-serif; }
      .text-amber { fill: #D97706; font-family: 'Inter', -apple-system, system-ui, sans-serif; }
      .mono { font-family: 'JetBrains Mono', monospace; }

      .row-1 { animation: fadeIn 0.5s ease-out 0.3s both; }
      .row-2 { animation: fadeIn 0.5s ease-out 0.5s both; }
      .row-3 { animation: fadeIn 0.5s ease-out 0.7s both; }
      .row-4 { animation: fadeIn 0.5s ease-out 0.9s both; }
      .row-5 { animation: fadeIn 0.5s ease-out 1.1s both; }
      .row-6 { animation: fadeIn 0.5s ease-out 1.3s both; }

      .stat-1 { animation: fadeIn 0.6s ease-out 0.1s both; }
      .stat-2 { animation: fadeIn 0.6s ease-out 0.2s both; }
      .stat-3 { animation: fadeIn 0.6s ease-out 0.3s both; }
      .stat-4 { animation: fadeIn 0.6s ease-out 0.4s both; }

      .notif { animation: notifSlide 0.5s ease-out 2.5s both; }
    </style>
    <linearGradient id="headerGrad" x1="0" y1="0" x2="1" y2="0">
      <stop offset="0%" stop-color="#312E81"/>
      <stop offset="100%" stop-color="#4F46E5"/>
    </linearGradient>
    <linearGradient id="greenG" x1="0" y1="0" x2="1" y2="0">
      <stop offset="0%" stop-color="#059669"/>
      <stop offset="100%" stop-color="#34D399"/>
    </linearGradient>
    <linearGradient id="redG" x1="0" y1="0" x2="1" y2="0">
      <stop offset="0%" stop-color="#DC2626"/>
      <stop offset="100%" stop-color="#F87171"/>
    </linearGradient>
  </defs>

  <rect width="1200" height="800" class="bg"/>

  <!-- Sidebar -->
  <rect width="220" height="800" fill="#1E1B4B"/>
  <!-- Logo area -->
  <rect x="24" y="18" width="172" height="36" rx="8" fill="rgba(255,255,255,0.1)"/>
  <text x="50" y="42" class="text-white" font-size="15" font-weight="700">⚡ Signal Studio</text>

  <!-- Nav items -->
  <rect x="12" y="80" width="196" height="38" rx="6" fill="rgba(255,255,255,0.12)"/>
  <text x="44" y="104" class="text-white" font-size="13" font-weight="500">📊 Dashboard</text>
  <text x="44" y="140" fill="#A5B4FC" font-size="13">⭐ Rising Stars</text>
  <text x="44" y="170" fill="#A5B4FC" font-size="13">👼 Fallen Angels</text>
  <text x="44" y="200" fill="#A5B4FC" font-size="13">💰 Cross-Sell</text>
  <text x="44" y="230" fill="#A5B4FC" font-size="13">⚠️ At-Risk AUM</text>
  <text x="44" y="260" fill="#A5B4FC" font-size="13">📈 Upsell</text>
  <text x="44" y="290" fill="#A5B4FC" font-size="13">🏢 RIA Insights</text>
  <text x="44" y="320" fill="#A5B4FC" font-size="13">🎯 Strategic</text>
  <text x="44" y="360" fill="#818CF8" font-size="13" font-weight="500">💬 Ask Anything</text>

  <!-- Branding placeholder -->
  <rect x="24" y="740" width="172" height="40" rx="6" fill="rgba(255,255,255,0.06)"/>
  <text x="48" y="765" fill="#818CF8" font-size="11">YOUR LOGO HERE</text>

  <!-- Main content area -->
  <!-- Top bar -->
  <rect x="220" y="0" width="980" height="56" fill="white" filter="drop-shadow(0 1px 2px rgba(0,0,0,0.05))"/>
  <text x="244" y="35" class="text-primary" font-size="18" font-weight="700">My Territory</text>
  <text x="420" y="35" class="text-secondary" font-size="13">Good morning, Jamie 👋</text>
  <!-- Search -->
  <rect x="750" y="14" width="240" height="30" rx="6" fill="#F3F4F6"/>
  <text x="768" y="34" class="text-secondary" font-size="12">🔍 Search advisors...</text>
  <rect x="1020" y="14" width="80" height="30" rx="6" fill="#4F46E5"/>
  <text x="1037" y="34" class="text-white" font-size="11" font-weight="600">💬 Ask AI</text>

  <!-- KPI Cards -->
  <g class="stat-1">
    <rect x="244" y="72" width="220" height="82" rx="10" class="card"/>
    <text x="264" y="96" class="text-secondary" font-size="10" font-weight="600" letter-spacing="0.5">ADVISORS</text>
    <text x="264" y="130" class="text-primary" font-size="32" font-weight="800">1,247</text>
    <text x="360" y="130" class="text-green" font-size="11" font-weight="500">↑ 23</text>
  </g>
  <g class="stat-2">
    <rect x="478" y="72" width="220" height="82" rx="10" class="card"/>
    <text x="498" y="96" class="text-secondary" font-size="10" font-weight="600" letter-spacing="0.5">TERRITORY AUM</text>
    <text x="498" y="130" class="text-primary" font-size="32" font-weight="800">$6.8B</text>
    <text x="608" y="130" class="text-green" font-size="11" font-weight="500">↑ 4.2%</text>
  </g>
  <g class="stat-3">
    <rect x="712" y="72" width="220" height="82" rx="10" class="card"/>
    <text x="732" y="96" class="text-secondary" font-size="10" font-weight="600" letter-spacing="0.5">SIGNALS TODAY</text>
    <text x="732" y="130" class="text-primary" font-size="32" font-weight="800">31</text>
    <text x="785" y="130" class="text-amber" font-size="11" font-weight="500">⚡ 8 urgent</text>
  </g>
  <g class="stat-4">
    <rect x="946" y="72" width="220" height="82" rx="10" class="card"/>
    <text x="966" y="96" class="text-secondary" font-size="10" font-weight="600" letter-spacing="0.5">NET SALES (TTM)</text>
    <text x="966" y="130" class="text-primary" font-size="32" font-weight="800">$203M</text>
    <text x="1098" y="130" class="text-green" font-size="11" font-weight="500">↑ 22%</text>
  </g>

  <!-- Priority Queue -->
  <rect x="244" y="170" width="720" height="620" rx="10" class="card"/>
  <text x="270" y="200" class="text-primary" font-size="15" font-weight="700">Today's Priority Queue</text>
  <rect x="830" y="182" width="110" height="26" rx="6" fill="#F3F4F6"/>
  <text x="848" y="200" class="text-secondary" font-size="11">🔄 2 min ago</text>

  <!-- Table header -->
  <rect x="244" y="214" width="720" height="28" fill="#F9FAFB" rx="0"/>
  <text x="270" y="233" class="text-secondary" font-size="10" font-weight="600">#</text>
  <text x="292" y="233" class="text-secondary" font-size="10" font-weight="600">ADVISOR</text>
  <text x="460" y="233" class="text-secondary" font-size="10" font-weight="600">FIRM</text>
  <text x="610" y="233" class="text-secondary" font-size="10" font-weight="600">SIGNAL</text>
  <text x="750" y="233" class="text-secondary" font-size="10" font-weight="600">SCORE</text>
  <text x="820" y="233" class="text-secondary" font-size="10" font-weight="600">AUM</text>
  <text x="900" y="233" class="text-secondary" font-size="10" font-weight="600">ACTION</text>

  <!-- Rows -->
  <g class="row-1">
    <rect x="246" y="244" width="716" height="52" fill="rgba(5,150,105,0.04)" rx="4"/>
    <text x="270" y="275" class="text-secondary" font-size="12">1</text>
    <circle cx="308" cy="270" r="14" fill="#D1FAE5"/>
    <text x="300" y="274" class="text-green" font-size="10" font-weight="600">JK</text>
    <text x="330" y="267" class="text-primary" font-size="12" font-weight="600">James Kim</text>
    <text x="330" y="282" class="text-secondary" font-size="9">Merrill Lynch · Southeast</text>
    <text x="460" y="275" class="text-primary" font-size="11">Merrill Lynch</text>
    <rect x="610" y="261" width="100" height="22" rx="11" fill="#D1FAE5"/>
    <text x="623" y="276" class="text-green" font-size="10" font-weight="600">⭐ Rising Star</text>
    <text x="750" y="275" class="text-primary mono" font-size="15" font-weight="800">9.4</text>
    <text x="820" y="275" class="text-primary" font-size="11">$22.1M</text>
    <rect x="898" y="261" width="50" height="22" rx="4" fill="#4F46E5"/>
    <text x="910" y="276" class="text-white" font-size="10" font-weight="600">Prep</text>
  </g>

  <g class="row-2">
    <text x="270" y="323" class="text-secondary" font-size="12">2</text>
    <circle cx="308" cy="318" r="14" fill="#FEE2E2"/>
    <text x="300" y="322" class="text-red" font-size="10" font-weight="600">PL</text>
    <text x="330" y="315" class="text-primary" font-size="12" font-weight="600">Patricia Lee</text>
    <text x="330" y="330" class="text-secondary" font-size="9">UBS · Northeast</text>
    <text x="460" y="323" class="text-primary" font-size="11">UBS Financial</text>
    <rect x="610" y="309" width="110" height="22" rx="11" fill="#FEE2E2"/>
    <text x="620" y="324" class="text-red" font-size="10" font-weight="600">👼 Fallen Angel</text>
    <text x="750" y="323" class="text-primary mono" font-size="15" font-weight="800">8.9</text>
    <text x="820" y="323" class="text-primary" font-size="11">$16.4M</text>
    <rect x="898" y="309" width="50" height="22" rx="4" fill="#DC2626"/>
    <text x="905" y="324" class="text-white" font-size="10" font-weight="600">Defend</text>
  </g>

  <g class="row-3">
    <rect x="246" y="340" width="716" height="52" fill="rgba(79,70,229,0.03)" rx="4"/>
    <text x="270" y="371" class="text-secondary" font-size="12">3</text>
    <circle cx="308" cy="366" r="14" fill="#E0E7FF"/>
    <text x="300" y="370" class="text-indigo" font-size="10" font-weight="600">RN</text>
    <text x="330" y="363" class="text-primary" font-size="12" font-weight="600">Rachel Nguyen</text>
    <text x="330" y="378" class="text-secondary" font-size="9">Raymond James · West</text>
    <text x="460" y="371" class="text-primary" font-size="11">Raymond James</text>
    <rect x="610" y="357" width="95" height="22" rx="11" fill="#E0E7FF"/>
    <text x="622" y="372" class="text-indigo" font-size="10" font-weight="600">💰 Takeover</text>
    <text x="750" y="371" class="text-primary mono" font-size="15" font-weight="800">8.6</text>
    <text x="820" y="371" class="text-primary" font-size="11">$28.3M</text>
    <rect x="898" y="357" width="50" height="22" rx="4" fill="#4F46E5"/>
    <text x="910" y="372" class="text-white" font-size="10" font-weight="600">Pitch</text>
  </g>

  <g class="row-4">
    <text x="270" y="419" class="text-secondary" font-size="12">4</text>
    <circle cx="308" cy="414" r="14" fill="#FEF3C7"/>
    <text x="300" y="418" class="text-amber" font-size="10" font-weight="600">DM</text>
    <text x="330" y="411" class="text-primary" font-size="12" font-weight="600">David Martinez</text>
    <text x="330" y="426" class="text-secondary" font-size="9">Wells Fargo · Midwest</text>
    <text x="460" y="419" class="text-primary" font-size="11">Wells Fargo</text>
    <rect x="610" y="405" width="80" height="22" rx="11" fill="#FEF3C7"/>
    <text x="622" y="420" class="text-amber" font-size="10" font-weight="600">📈 Upsell</text>
    <text x="750" y="419" class="text-primary mono" font-size="15" font-weight="800">8.1</text>
    <text x="820" y="419" class="text-primary" font-size="11">$11.7M</text>
    <rect x="898" y="405" width="50" height="22" rx="4" fill="#D97706"/>
    <text x="908" y="420" class="text-white" font-size="10" font-weight="600">Email</text>
  </g>

  <g class="row-5">
    <rect x="246" y="436" width="716" height="52" fill="rgba(5,150,105,0.02)" rx="4"/>
    <text x="270" y="467" class="text-secondary" font-size="12">5</text>
    <circle cx="308" cy="462" r="14" fill="#FEE2E2"/>
    <text x="300" y="466" class="text-red" font-size="10" font-weight="600">SB</text>
    <text x="330" y="459" class="text-primary" font-size="12" font-weight="600">Sandra Brown</text>
    <text x="330" y="474" class="text-secondary" font-size="9">Edward Jones · Southeast</text>
    <text x="460" y="467" class="text-primary" font-size="11">Edward Jones</text>
    <rect x="610" y="453" width="105" height="22" rx="11" fill="#FEE2E2"/>
    <text x="620" y="468" class="text-red" font-size="10" font-weight="600">⚠️ At-Risk AUM</text>
    <text x="750" y="467" class="text-primary mono" font-size="15" font-weight="800">7.8</text>
    <text x="820" y="467" class="text-primary" font-size="11">$19.5M</text>
    <rect x="898" y="453" width="50" height="22" rx="4" fill="#DC2626"/>
    <text x="905" y="468" class="text-white" font-size="10" font-weight="600">Defend</text>
  </g>

  <g class="row-6">
    <text x="270" y="515" class="text-secondary" font-size="12">6</text>
    <circle cx="308" cy="510" r="14" fill="#E0E7FF"/>
    <text x="300" y="514" class="text-indigo" font-size="10" font-weight="600">AW</text>
    <text x="330" y="507" class="text-primary" font-size="12" font-weight="600">Andrew Walsh</text>
    <text x="330" y="522" class="text-secondary" font-size="9">Apex Wealth RIA · Schwab</text>
    <text x="460" y="515" class="text-primary" font-size="11">Apex Wealth (RIA)</text>
    <rect x="610" y="501" width="98" height="22" rx="11" fill="#E0E7FF"/>
    <text x="620" y="516" class="text-indigo" font-size="10" font-weight="600">🏢 RIA Insight</text>
    <text x="750" y="515" class="text-primary mono" font-size="15" font-weight="800">7.5</text>
    <text x="820" y="515" class="text-primary" font-size="11">$410M</text>
    <rect x="898" y="501" width="50" height="22" rx="4" fill="#4F46E5"/>
    <text x="910" y="516" class="text-white" font-size="10" font-weight="600">Prep</text>
  </g>

  <!-- Pagination -->
  <text x="270" y="558" class="text-secondary" font-size="10">Showing 1-6 of 31 signals</text>

  <!-- Right Panel: Signal breakdown + chart -->
  <rect x="980" y="170" width="186" height="310" rx="10" class="card"/>
  <text x="1000" y="196" class="text-primary" font-size="12" font-weight="700">Signals</text>

  <text x="1000" y="224" class="text-secondary" font-size="10">⭐ Rising Stars</text>
  <rect x="1000" y="230" width="0" height="8" rx="4" fill="url(#greenG)">
    <animate attributeName="width" from="0" to="140" dur="0.6s" begin="1s" fill="freeze"/>
  </rect>
  <text x="1150" y="238" class="text-primary" font-size="10" font-weight="600" opacity="0">
    <animate attributeName="opacity" to="1" dur="0.2s" begin="1.6s" fill="freeze"/>8</text>

  <text x="1000" y="262" class="text-secondary" font-size="10">👼 Fallen Angels</text>
  <rect x="1000" y="268" width="0" height="8" rx="4" fill="url(#redG)">
    <animate attributeName="width" from="0" to="88" dur="0.6s" begin="1.2s" fill="freeze"/>
  </rect>
  <text x="1098" y="276" class="text-primary" font-size="10" font-weight="600" opacity="0">
    <animate attributeName="opacity" to="1" dur="0.2s" begin="1.8s" fill="freeze"/>5</text>

  <text x="1000" y="300" class="text-secondary" font-size="10">💰 Cross-Sell</text>
  <rect x="1000" y="306" width="0" height="8" rx="4" fill="#4F46E5">
    <animate attributeName="width" from="0" to="105" dur="0.6s" begin="1.4s" fill="freeze"/>
  </rect>
  <text x="1115" y="314" class="text-primary" font-size="10" font-weight="600" opacity="0">
    <animate attributeName="opacity" to="1" dur="0.2s" begin="2.0s" fill="freeze"/>6</text>

  <text x="1000" y="338" class="text-secondary" font-size="10">📈 Upsell</text>
  <rect x="1000" y="344" width="0" height="8" rx="4" fill="#D97706">
    <animate attributeName="width" from="0" to="70" dur="0.6s" begin="1.6s" fill="freeze"/>
  </rect>
  <text x="1080" y="352" class="text-primary" font-size="10" font-weight="600" opacity="0">
    <animate attributeName="opacity" to="1" dur="0.2s" begin="2.2s" fill="freeze"/>4</text>

  <text x="1000" y="376" class="text-secondary" font-size="10">⚠️ At-Risk</text>
  <rect x="1000" y="382" width="0" height="8" rx="4" fill="#DC2626">
    <animate attributeName="width" from="0" to="53" dur="0.6s" begin="1.8s" fill="freeze"/>
  </rect>
  <text x="1063" y="390" class="text-primary" font-size="10" font-weight="600" opacity="0">
    <animate attributeName="opacity" to="1" dur="0.2s" begin="2.4s" fill="freeze"/>3</text>

  <text x="1000" y="414" class="text-secondary" font-size="10">🏢 RIA</text>
  <rect x="1000" y="420" width="0" height="8" rx="4" fill="#0EA5E9">
    <animate attributeName="width" from="0" to="53" dur="0.6s" begin="2.0s" fill="freeze"/>
  </rect>
  <text x="1063" y="428" class="text-primary" font-size="10" font-weight="600" opacity="0">
    <animate attributeName="opacity" to="1" dur="0.2s" begin="2.6s" fill="freeze"/>3</text>

  <text x="1000" y="452" class="text-secondary" font-size="10">🎯 Strategic</text>
  <rect x="1000" y="458" width="0" height="8" rx="4" fill="#8B5CF6">
    <animate attributeName="width" from="0" to="35" dur="0.6s" begin="2.2s" fill="freeze"/>
  </rect>
  <text x="1045" y="466" class="text-primary" font-size="10" font-weight="600" opacity="0">
    <animate attributeName="opacity" to="1" dur="0.2s" begin="2.8s" fill="freeze"/>2</text>

  <!-- Quick chart -->
  <rect x="980" y="495" width="186" height="150" rx="10" class="card"/>
  <text x="1000" y="518" class="text-primary" font-size="12" font-weight="700">Net Sales (TTM)</text>
  <text x="1108" y="518" class="text-green" font-size="10" font-weight="600">+22%</text>
  <polyline points="1000,610 1020,605 1040,600 1060,590 1080,585 1100,575 1120,565 1140,555"
    fill="none" stroke="#4F46E5" stroke-width="2" stroke-linecap="round"
    stroke-dasharray="400" stroke-dashoffset="400">
    <animate attributeName="stroke-dashoffset" from="400" to="0" dur="1.5s" begin="1.5s" fill="freeze"/>
  </polyline>
  <polygon points="1000,610 1020,605 1040,600 1060,590 1080,585 1100,575 1120,565 1140,555 1140,625 1000,625"
    fill="#4F46E5" opacity="0">
    <animate attributeName="opacity" from="0" to="0.08" dur="0.5s" begin="2.8s" fill="freeze"/>
  </polygon>

  <!-- Notification -->
  <g class="notif">
    <rect x="244" y="580" width="720" height="48" rx="10" fill="#312E81" filter="drop-shadow(0 4px 12px rgba(0,0,0,0.12))"/>
    <circle cx="270" cy="604" r="8" fill="#059669"/>
    <text x="264" y="608" class="text-white" font-size="10" font-weight="800">⚡</text>
    <text x="288" y="598" class="text-white" font-size="12" font-weight="600">New Signal</text>
    <text x="288" y="616" fill="#C7D2FE" font-size="11" font-family="system-ui">Marcus Chen at Stifel — Cross-sell opportunity score: 8.3</text>
    <rect x="880" y="592" width="60" height="24" rx="4" fill="rgba(255,255,255,0.15)"/>
    <text x="895" y="609" class="text-white" font-size="10">View →</text>
  </g>

  <!-- White-label callout -->
  <rect x="244" y="642" width="920" height="148" rx="10" class="card" opacity="0">
    <animate attributeName="opacity" from="0" to="1" dur="0.5s" begin="3.5s" fill="freeze"/>
  </rect>
  <g opacity="0">
    <animate attributeName="opacity" from="0" to="1" dur="0.5s" begin="3.5s" fill="freeze"/>
    <text x="270" y="672" class="text-primary" font-size="14" font-weight="700">🏷️ Fully White-Labeled</text>
    <text x="270" y="698" class="text-secondary" font-size="12">✅ Your logo, your colors, your domain</text>
    <text x="270" y="718" class="text-secondary" font-size="12">✅ Embed in Salesforce, Microsoft Dynamics, or standalone</text>
    <text x="270" y="738" class="text-secondary" font-size="12">✅ Custom signal names and scoring weights</text>
    <text x="270" y="758" class="text-secondary" font-size="12">✅ SSO via SAML/OIDC — deploy to 500+ wholesalers in days</text>

    <text x="750" y="698" class="text-secondary" font-size="12">🔌 Integrations:</text>
    <rect x="750" y="708" width="80" height="22" rx="4" fill="#EBF5FF"/>
    <text x="758" y="723" class="text-indigo" font-size="10">Salesforce</text>
    <rect x="838" y="708" width="70" height="22" rx="4" fill="#EBF5FF"/>
    <text x="848" y="723" class="text-indigo" font-size="10">Dynamics</text>
    <rect x="916" y="708" width="65" height="22" rx="4" fill="#EBF5FF"/>
    <text x="926" y="723" class="text-indigo" font-size="10">HubSpot</text>
    <rect x="989" y="708" width="55" height="22" rx="4" fill="#EBF5FF"/>
    <text x="999" y="723" class="text-indigo" font-size="10">Slack</text>
    <rect x="1052" y="708" width="90" height="22" rx="4" fill="#EBF5FF"/>
    <text x="1062" y="723" class="text-indigo" font-size="10">MS Teams</text>
  </g>

  <text x="1140" y="793" class="text-secondary" font-size="9" text-anchor="end" opacity="0.4">Powered by ForwardLane AI</text>
</svg>